HIERARCHY
ROOT reference
{
  OFFSET 0 0 0
  CHANNELS 6 Xposition Yposition Zposition Zrotation Xrotation Yrotation
  JOINT Hips
  {
    OFFSET 349.773 89.4622 219.413
    CHANNELS 3 Zrotation Xrotation Yrotation
    JOINT RightUpLeg
    {
      OFFSET -9.25229 -1.56476 -0.00486621
      CHANNELS 3 Zrotation Xrotation Yrotation
      JOINT RightLeg
      {
        OFFSET 0.0546168 -41.8841 0.068862
        CHANNELS 3 Zrotation Xrotation Yrotation
        JOINT RightFoot
        {
          OFFSET -1.63893 -40.8901 3.53979
          CHANNELS 3 Zrotation Xrotation Yrotation
          End Site
          {
            OFFSET 0 -7.69 17.5
          }
        }
      }
    }
    JOINT LeftUpLeg
    {
      OFFSET 9.30241 -1.63853 -0.0284428
      CHANNELS 3 Zrotation Xrotation Yrotation
      JOINT LeftLeg
      {
        OFFSET 0.0539686 -41.842 -0.0517406
        CHANNELS 3 Zrotation Xrotation Yrotation
        JOINT LeftFoot
        {
          OFFSET 1.12518 -42.5382 -2.5849
          CHANNELS 3 Zrotation Xrotation Yrotation
          End Site
          {
            OFFSET 0 -7.69 17.5
          }
        }
      }
    }
    JOINT Spine
    {
      OFFSET 0.0144198 14.3187 0.0981135
      CHANNELS 3 Zrotation Xrotation Yrotation
      JOINT Spine1
      {
        OFFSET 0.0112165 9.7169 0.0514987
        CHANNELS 3 Zrotation Xrotation Yrotation
        JOINT Spine2
        {
          OFFSET 0.0255827 10.1205 -0.00638435
          CHANNELS 3 Zrotation Xrotation Yrotation
          JOINT Spine3
          {
            OFFSET -0.00190646 9.72552 0.024249
            CHANNELS 3 Zrotation Xrotation Yrotation
            JOINT Neck
            {
              OFFSET -0.136438 10.3681 0.0553958
              CHANNELS 3 Zrotation Xrotation Yrotation
              JOINT Head
              {
                OFFSET 0.0264476 9.5071 0.170402
                CHANNELS 3 Zrotation Xrotation Yrotation
                End Site
                {
                  OFFSET 0 15.95 0
                }
              }
            }
            JOINT RightShoulder
            {
              OFFSET -3.1747 6.92483 0.00547946
              CHANNELS 3 Zrotation Xrotation Yrotation
              JOINT RightArm
              {
                OFFSET -12.7755 -0.0136287 0.0362428
                CHANNELS 3 Zrotation Xrotation Yrotation
                JOINT RightForeArm
                {
                  OFFSET -26.5642 -0.108975 -0.0233747
                  CHANNELS 3 Zrotation Xrotation Yrotation
                  JOINT RightHand
                  {
                    OFFSET -25.905 -0.185223 0.00356295
                    CHANNELS 3 Zrotation Xrotation Yrotation
                    JOINT RightHandThumb1
                    {
                      OFFSET -2.48905 0.190105 3.12053
                      CHANNELS 3 Zrotation Xrotation Yrotation
                      JOINT RightHandThumb2
                      {
                        OFFSET -3.68274 0 0
                        CHANNELS 3 Zrotation Xrotation Yrotation
                        JOINT RightHandThumb3
                        {
                          OFFSET -2.55832 0 0
                          CHANNELS 3 Zrotation Xrotation Yrotation
                          End Site
                          {
                            OFFSET -2.194 0 0
                          }
                        }
                      }
                    }
                    JOINT RightInHandIndex
                    {
                      OFFSET -3.22368 0.508421 1.97842
                      CHANNELS 3 Zrotation Xrotation Yrotation
                      JOINT RightHandIndex1
                      {
                        OFFSET -5.21684 -0.091368 0.999158
                        CHANNELS 3 Zrotation Xrotation Yrotation
                        JOINT RightHandIndex2
                        {
                          OFFSET -3.61937 0 0
                          CHANNELS 3 Zrotation Xrotation Yrotation
                          JOINT RightHandIndex3
                          {
                            OFFSET -2.0521 0 0
                            CHANNELS 3 Zrotation Xrotation Yrotation
                            End Site
                            {
                              OFFSET -1.805 0 0
                            }
                          }
                        }
                      }
                    }
                    JOINT RightInHandMiddle
                    {
                      OFFSET -3.38211 0.517263 0.756737
                      CHANNELS 3 Zrotation Xrotation Yrotation
                      JOINT RightHandMiddle1
                      {
                        OFFSET -5.17411 -0.084 0.313895
                        CHANNELS 3 Zrotation Xrotation Yrotation
                        JOINT RightHandMiddle2
                        {
                          OFFSET -3.94947 0 0
                          CHANNELS 3 Zrotation Xrotation Yrotation
                          JOINT RightHandMiddle3
                          {
                            OFFSET -2.47579 0 0
                            CHANNELS 3 Zrotation Xrotation Yrotation
                            End Site
                            {
                              OFFSET -1.975 0 0
                            }
                          }
                        }
                      }
                    }
                    JOINT RightInHandRing
                    {
                      OFFSET -3.36516 0.537895 -0.128947
                      CHANNELS 3 Zrotation Xrotation Yrotation
                      JOINT RightHandRing1
                      {
                        OFFSET -4.63474 -0.022105 -0.478947
                        CHANNELS 3 Zrotation Xrotation Yrotation
                        JOINT RightHandRing2
                        {
                          OFFSET -3.44238 0 0
                          CHANNELS 3 Zrotation Xrotation Yrotation
                          JOINT RightHandRing3
                          {
                            OFFSET -2.3881 0 0
                            CHANNELS 3 Zrotation Xrotation Yrotation
                            End Site
                            {
                              OFFSET -1.857 0 0
                            }
                          }
                        }
                      }
                    }
                    JOINT RightInHandPinky
                    {
                      OFFSET -3.16105 0.469368 -1.20179
                      CHANNELS 3 Zrotation Xrotation Yrotation
                      JOINT RightHandPinky1
                      {
                        OFFSET -4.14105 -0.022105 -1.09053
                        CHANNELS 3 Zrotation Xrotation Yrotation
                        JOINT RightHandPinky2
                        {
                          OFFSET -2.75653 0 0
                          CHANNELS 3 Zrotation Xrotation Yrotation
                          JOINT RightHandPinky3
                          {
                            OFFSET -1.74189 0 0
                            CHANNELS 3 Zrotation Xrotation Yrotation
                            End Site
                            {
                              OFFSET -1.645 0 0
                            }
                          }
                        }
                      }
                    }
                  }
                }
              }
            }
            JOINT LeftShoulder
            {
              OFFSET 3.23079 6.93624 -0.032633
              CHANNELS 3 Zrotation Xrotation Yrotation
              JOINT LeftArm
              {
                OFFSET 12.8235 -0.00564763 -0.0637926
                CHANNELS 3 Zrotation Xrotation Yrotation
                JOINT LeftForeArm
                {
                  OFFSET 26.4641 -0.00020372 -0.0407631
                  CHANNELS 3 Zrotation Xrotation Yrotation
                  JOINT LeftHand
                  {
                    OFFSET 25.9912 -0.0207868 -0.0178714
                    CHANNELS 3 Zrotation Xrotation Yrotation
                    JOINT LeftHandThumb1
                    {
                      OFFSET 2.48905 0.190105 3.12053
                      CHANNELS 3 Zrotation Xrotation Yrotation
                      JOINT LeftHandThumb2
                      {
                        OFFSET 3.68274 0 0
                        CHANNELS 3 Zrotation Xrotation Yrotation
                        JOINT LeftHandThumb3
                        {
                          OFFSET 2.55832 0 0
                          CHANNELS 3 Zrotation Xrotation Yrotation
                          End Site
                          {
                            OFFSET 2.194 0 0
                          }
                        }
                      }
                    }
                    JOINT LeftInHandIndex
                    {
                      OFFSET 3.22368 0.508421 1.97842
                      CHANNELS 3 Zrotation Xrotation Yrotation
                      JOINT LeftHandIndex1
                      {
                        OFFSET 5.21684 -0.091368 0.999158
                        CHANNELS 3 Zrotation Xrotation Yrotation
                        JOINT LeftHandIndex2
                        {
                          OFFSET 3.61937 0 0
                          CHANNELS 3 Zrotation Xrotation Yrotation
                          JOINT LeftHandIndex3
                          {
                            OFFSET 2.0521 0 0
                            CHANNELS 3 Zrotation Xrotation Yrotation
                            End Site
                            {
                              OFFSET 1.805 0 0
                            }
                          }
                        }
                      }
                    }
                    JOINT LeftInHandMiddle
                    {
                      OFFSET 3.38211 0.517263 0.756737
                      CHANNELS 3 Zrotation Xrotation Yrotation
                      JOINT LeftHandMiddle1
                      {
                        OFFSET 5.17411 -0.084 0.313895
                        CHANNELS 3 Zrotation Xrotation Yrotation
                        JOINT LeftHandMiddle2
                        {
                          OFFSET 3.94947 0 0
                          CHANNELS 3 Zrotation Xrotation Yrotation
                          JOINT LeftHandMiddle3
                          {
                            OFFSET 2.47579 0 0
                            CHANNELS 3 Zrotation Xrotation Yrotation
                            End Site
                            {
                              OFFSET 1.975 0 0
                            }
                          }
                        }
                      }
                    }
                    JOINT LeftInHandRing
                    {
                      OFFSET 3.36516 0.537895 -0.128947
                      CHANNELS 3 Zrotation Xrotation Yrotation
                      JOINT LeftHandRing1
                      {
                        OFFSET 4.63474 -0.022105 -0.478947
                        CHANNELS 3 Zrotation Xrotation Yrotation
                        JOINT LeftHandRing2
                        {
                          OFFSET 3.44238 0 0
                          CHANNELS 3 Zrotation Xrotation Yrotation
                          JOINT LeftHandRing3
                          {
                            OFFSET 2.3881 0 0
                            CHANNELS 3 Zrotation Xrotation Yrotation
                            End Site
                            {
                              OFFSET 1.857 0 0
                            }
                          }
                        }
                      }
                    }
                    JOINT LeftInHandPinky
                    {
                      OFFSET 3.16105 0.469368 -1.20179
                      CHANNELS 3 Zrotation Xrotation Yrotation
                      JOINT LeftHandPinky1
                      {
                        OFFSET 4.14105 -0.022105 -1.09053
                        CHANNELS 3 Zrotation Xrotation Yrotation
                        JOINT LeftHandPinky2
                        {
                          OFFSET 2.75653 0 0
                          CHANNELS 3 Zrotation Xrotation Yrotation
                          JOINT LeftHandPinky3
                          {
                            OFFSET 1.74189 0 0
                            CHANNELS 3 Zrotation Xrotation Yrotation
                            End Site
                            {
                              OFFSET 1.645 0 0
                            }
                          }
                        }
                      }
                    }
                  }
                }
              }
            }
          }
        }
      }
    }
  }
}
MOTION
Frames: 2
Frame Time: 0.00833333
9.000000000000000000e+02 0.000000000000000000e+00 0.000000000000000000e+00 0.000000000000000000e+00 0.000000000000000000e+00 0.000000000000000000e+00 -5.712458514622623440e+00 -9.797521997444840203e-01 3.222595211202467169e+01 -7.435129824607820126e+00 1.717005246512271555e+01 -1.093074081863812985e+01 2.807738513406039971e+00 2.554863475911848703e+00 -6.551866774946178751e+00 9.790769799702043752e-01 -6.012790032532264739e+00 -6.966088622853797929e+00 -2.212264614926008477e+01 7.037687580600938020e+00 -2.207705080642324802e+01 7.312945604084585050e+00 -3.683489214477721596e+00 -7.746226665759312624e+00 -2.149473276530162735e+00 2.994722440550115827e+00 -9.193590882726329738e+00 5.239605190152275549e-01 -3.821029509942298397e+00 1.084820342104757884e+01 -7.802128900408628054e-03 -9.203414455595333443e-01 2.808295494535269832e+00 3.306768575931509635e-02 -1.463956067858271481e+00 3.685736724201670533e+00 2.337615575417611724e-01 -1.530295142127462669e-02 -7.171769320532318526e-01 9.429944840258165373e-01 -9.620792724253679484e-01 -2.074633475200256427e+01 3.320874708239267559e+00 3.249996560646160937e+00 -6.012936962886215042e-01 -4.383264171444936075e+00 -4.099926687031425487e+00 8.779507989613659191e+00 -1.260515378822657695e+01 1.436185123317365608e+01 1.406479968655237656e+01 -3.962000040806778856e+01 3.684057141429679216e+00 2.092080525116786660e+01 2.033556204362648945e+00 1.068731194929218731e+01 1.484821941243476928e+01 0.000000000000000000e+00 0.000000000000000000e+00 0.000000000000000000e+00 1.553986186216789035e-16 9.125949410995040769e-16 0.000000000000000000e+00 -1.263642838180164196e-15 -1.487416473125297463e-16 0.000000000000000000e+00 -2.466915706024810626e-15 -8.039480430009348943e-16 9.228665540773729123e-16 0.000000000000000000e+00 0.000000000000000000e+00 0.000000000000000000e+00 0.000000000000000000e+00 -1.596162629129649573e-15 -2.793575822534000585e-15 0.000000000000000000e+00 -8.022373848978304564e-16 -5.681056795029194802e-15 -2.466915706024810626e-15 -8.039480430009348943e-16 9.228665540773729123e-16 0.000000000000000000e+00 9.529964324377679028e-16 8.054448922652891848e-15 0.000000000000000000e+00 -2.087835309387810093e-15 -1.109959079085511973e-15 0.000000000000000000e+00 1.004226357330512855e-15 -1.789493476427676897e-15 -2.466915706024810626e-15 -8.039480430009348943e-16 9.228665540773729123e-16 0.000000000000000000e+00 0.000000000000000000e+00 0.000000000000000000e+00 0.000000000000000000e+00 3.161629980403540283e-15 -1.291085441544844725e-15 0.000000000000000000e+00 -1.449830003080550679e-15 -6.006978112754378044e-15 -2.466915706024810626e-15 -8.039480430009348943e-16 9.228665540773729123e-16 0.000000000000000000e+00 0.000000000000000000e+00 0.000000000000000000e+00 0.000000000000000000e+00 2.689224932696327011e-16 3.213718131841744511e-15 0.000000000000000000e+00 4.662864719072615258e-16 -2.152595988502240922e-15 -7.609516786359890261e+00 5.452212469934107020e+00 8.107710873745405777e+00 -2.254397937575707189e+01 -3.110634312659927403e+01 1.433376459360225752e+01 4.096899530550688695e+01 1.104663670827305211e+01 -2.034043561957623680e+01 7.667860605350618197e-01 7.118079796719031016e+00 -1.022915707120374407e+01 0.000000000000000000e+00 0.000000000000000000e+00 0.000000000000000000e+00 7.396903921453833608e-15 -3.407562753074330965e-15 0.000000000000000000e+00 3.200510585346611586e-15 -1.929686378414645828e-15 0.000000000000000000e+00 9.649802867387243292e-17 3.616286232986640651e-17 1.556006820713881250e-15 0.000000000000000000e+00 0.000000000000000000e+00 0.000000000000000000e+00 0.000000000000000000e+00 1.069494833920563627e-15 -1.700914450232726836e-15 0.000000000000000000e+00 -3.715535578382470326e-16 1.758124352184023603e-15 9.649802867387243292e-17 3.616286232986640651e-17 1.556006820713881250e-15 0.000000000000000000e+00 1.862023004077455258e-15 -7.401867169495161984e-16 0.000000000000000000e+00 7.133514679466877319e-16 -3.078443409509168933e-15 0.000000000000000000e+00 3.191762988989990494e-15 3.766539045986600663e-16 9.649802867387243292e-17 3.616286232986640651e-17 1.556006820713881250e-15 0.000000000000000000e+00 0.000000000000000000e+00 0.000000000000000000e+00 0.000000000000000000e+00 3.423802831338067074e-15 -2.467203610514093628e-15 0.000000000000000000e+00 4.058495135824251047e-16 -1.083787702056184513e-15 9.649802867387243292e-17 3.616286232986640651e-17 1.556006820713881250e-15 0.000000000000000000e+00 0.000000000000000000e+00 0.000000000000000000e+00 0.000000000000000000e+00 -4.819539194910972672e-15 -6.210558193775387927e-17 0.000000000000000000e+00 3.555437999268843886e-15 3.027477811262842893e-15
9.000000000000000000e+02 0.000000000000000000e+00 0.000000000000000000e+00 0.000000000000000000e+00 0.000000000000000000e+00 0.000000000000000000e+00 -5.712654368038341701e+00 -1.016823071969781500e+00 3.215906371237207395e+01 -7.390154008355068527e+00 1.716265094918603040e+01 -1.093655798314128269e+01 2.785806455150098948e+00 2.568021470335920764e+00 -6.524002836659503757e+00 9.769122447310261137e-01 -5.974839156472935287e+00 -6.880830168598755847e+00 -2.213126824969008055e+01 7.056919247559591213e+00 -2.210478624020102956e+01 7.291016299380641996e+00 -3.599893439314194143e+00 -7.685066481374159153e+00 -2.140504814210117956e+00 2.959731347313618421e+00 -9.162506694874734237e+00 5.254481310403817940e-01 -3.810943640205103566e+00 1.076130997676074408e+01 -8.327097593473144210e-03 -9.187472725037213461e-01 2.785419415845574065e+00 3.254567468631871380e-02 -1.461808195069032035e+00 3.648206097451895502e+00 2.305781082648159508e-01 -1.609399838051323028e-02 -7.060344754070295714e-01 9.367288083106943830e-01 -9.689165158780507214e-01 -2.069598216354326325e+01 3.258003673199035610e+00 3.244872520650247338e+00 -4.085354960914822087e-01 -4.336015368116303392e+00 -4.091356753156826009e+00 8.734918115800283545e+00 -1.255562353042238222e+01 1.435332532412912343e+01 1.392639183080544996e+01 -3.965973718683407867e+01 3.514819557898521296e+00 2.107638466134334720e+01 1.958994012205603763e+00 1.066859692451883568e+01 1.499341078497096902e+01 0.000000000000000000e+00 0.000000000000000000e+00 0.000000000000000000e+00 1.621824562526389922e-16 9.135134887786473759e-16 0.000000000000000000e+00 -1.291745842238342821e-15 -1.714393947503499206e-16 0.000000000000000000e+00 -2.495098975231085012e-15 -8.063940927704014291e-16 9.296214634138890873e-16 0.000000000000000000e+00 0.000000000000000000e+00 0.000000000000000000e+00 0.000000000000000000e+00 -1.637068972828313045e-15 -2.864158323159154707e-15 0.000000000000000000e+00 -8.169837416779358718e-16 -5.753879410452097404e-15 -2.495098975231085012e-15 -8.063940927704014291e-16 9.296214634138890873e-16 0.000000000000000000e+00 9.784597220723107560e-16 8.126273744768900363e-15 0.000000000000000000e+00 -2.136387954738392390e-15 -1.131650842129892106e-15 0.000000000000000000e+00 1.017553447433593993e-15 -1.783873972170325570e-15 -2.495098975231085012e-15 -8.063940927704014291e-16 9.296214634138890873e-16 0.000000000000000000e+00 0.000000000000000000e+00 0.000000000000000000e+00 0.000000000000000000e+00 3.206482139500970141e-15 -1.303154087053480606e-15 0.000000000000000000e+00 -1.472307285076475876e-15 -6.063547092511810649e-15 -2.495098975231085012e-15 -8.063940927704014291e-16 9.296214634138890873e-16 0.000000000000000000e+00 0.000000000000000000e+00 0.000000000000000000e+00 0.000000000000000000e+00 2.546330028685027244e-16 3.209642198141635623e-15 0.000000000000000000e+00 4.719159251376738084e-16 -2.137917180162489918e-15 -7.618631078060538186e+00 5.487491556876430643e+00 8.098964550320744138e+00 -2.243771635467134473e+01 -3.115948825519231491e+01 1.421081427738098313e+01 4.168036125529532399e+01 1.112278562214524769e+01 -1.961261725837982794e+01 7.453776617678840033e-01 7.129507173385523089e+00 -1.016990657931919628e+01 0.000000000000000000e+00 0.000000000000000000e+00 0.000000000000000000e+00 7.477346640512420103e-15 -3.452418726594645276e-15 0.000000000000000000e+00 3.217010908581982311e-15 -1.961213794465952487e-15 0.000000000000000000e+00 8.671415174714021635e-17 3.730775279942485273e-17 1.558291352824226642e-15 0.000000000000000000e+00 0.000000000000000000e+00 0.000000000000000000e+00 0.000000000000000000e+00 1.067861762316593428e-15 -1.721082774249309162e-15 0.000000000000000000e+00 -3.717186046567794472e-16 1.749468393644126683e-15 8.671415174714021635e-17 3.730775279942485273e-17 1.558291352824226642e-15 0.000000000000000000e+00 1.898838366239185116e-15 -7.314257476876053341e-16 0.000000000000000000e+00 7.223911966445691656e-16 -3.121009052960202892e-15 0.000000000000000000e+00 3.237192800020519396e-15 3.341166181601253742e-16 8.671415174714021635e-17 3.730775279942485273e-17 1.558291352824226642e-15 0.000000000000000000e+00 0.000000000000000000e+00 0.000000000000000000e+00 0.000000000000000000e+00 3.438952382121310838e-15 -2.542271171402574552e-15 0.000000000000000000e+00 4.303312985770520049e-16 -1.116826528871099694e-15 8.671415174714021635e-17 3.730775279942485273e-17 1.558291352824226642e-15 0.000000000000000000e+00 0.000000000000000000e+00 0.000000000000000000e+00 0.000000000000000000e+00 -4.855111051611248329e-15 -5.394978358920653939e-17 0.000000000000000000e+00 3.596162065727625644e-15 3.028890339554819499e-15
